<svg width="13" height="16" viewBox="0 0 13 16" fill="none" xmlns="http://www.w3.org/2000/svg">
<path d="M0.579651 14.0743V1.90258C0.579651 1.56937 0.697252 1.29007 0.932455 1.06467C1.16766 0.839264 1.44206 0.726562 1.75567 0.726562C1.85367 0.726562 1.95657 0.741263 2.06437 0.770663C2.17217 0.800063 2.27507 0.844164 2.37307 0.902965L11.9576 6.98884C12.134 7.10644 12.2663 7.25344 12.3545 7.42985C12.4427 7.60625 12.4868 7.79245 12.4868 7.98845C12.4868 8.18446 12.4427 8.37066 12.3545 8.54706C12.2663 8.72346 12.134 8.87047 11.9576 8.98807L2.37307 15.0739C2.27507 15.1327 2.17217 15.1768 2.06437 15.2062C1.95657 15.2356 1.85367 15.2503 1.75567 15.2503C1.44206 15.2503 1.16766 15.1376 0.932455 14.9122C0.697252 14.6868 0.579651 14.4075 0.579651 14.0743Z" fill="#0F0622"/>
</svg>
