<svg width="36" height="36" viewBox="0 0 36 36" fill="none" xmlns="http://www.w3.org/2000/svg">
<path d="M8.83301 9.75V17.0833L14.333 13.4167L8.83301 9.75Z" fill="#F7F7F7"/>
<path d="M9.74967 20.2917H26.2497C26.4928 20.2917 26.7259 20.1951 26.8979 20.0232C27.0698 19.8513 27.1663 19.6181 27.1663 19.375C27.1663 19.1319 27.0698 18.8987 26.8979 18.7268C26.7259 18.5549 26.4928 18.4583 26.2497 18.4583H9.74967C9.50656 18.4583 9.2734 18.5549 9.10149 18.7268C8.92958 18.8987 8.83301 19.1319 8.83301 19.375C8.83301 19.6181 8.92958 19.8513 9.10149 20.0232C9.2734 20.1951 9.50656 20.2917 9.74967 20.2917ZM16.1663 13.4167C16.1663 13.6598 16.2629 13.8929 16.4348 14.0648C16.6067 14.2368 16.8399 14.3333 17.083 14.3333H26.2497C26.4928 14.3333 26.7259 14.2368 26.8979 14.0648C27.0698 13.8929 27.1663 13.6598 27.1663 13.4167C27.1663 13.1736 27.0698 12.9404 26.8979 12.7685C26.7259 12.5966 26.4928 12.5 26.2497 12.5H17.083C16.8399 12.5 16.6067 12.5966 16.4348 12.7685C16.2629 12.9404 16.1663 13.1736 16.1663 13.4167ZM9.74967 26.25H26.2497C26.4928 26.25 26.7259 26.1534 26.8979 25.9815C27.0698 25.8096 27.1663 25.5764 27.1663 25.3333C27.1663 25.0902 27.0698 24.8571 26.8979 24.6852C26.7259 24.5132 26.4928 24.4167 26.2497 24.4167H9.74967C9.50656 24.4167 9.2734 24.5132 9.10149 24.6852C8.92958 24.8571 8.83301 25.0902 8.83301 25.3333C8.83301 25.5764 8.92958 25.8096 9.10149 25.9815C9.2734 26.1534 9.50656 26.25 9.74967 26.25Z" fill="#F7F7F7"/>
</svg>
