<svg width="36" height="36" viewBox="0 0 36 36" fill="none" xmlns="http://www.w3.org/2000/svg">
<path d="M28.5 19.75V26.75C28.5 26.9821 28.4078 27.2046 28.2437 27.3687C28.0796 27.5328 27.8571 27.625 27.625 27.625H8.375C8.14294 27.625 7.92038 27.5328 7.75628 27.3687C7.59219 27.2046 7.5 26.9821 7.5 26.75V19.75C7.5 19.5179 7.59219 19.2954 7.75628 19.1313C7.92038 18.9672 8.14294 18.875 8.375 18.875C8.60706 18.875 8.82962 18.9672 8.99372 19.1313C9.15781 19.2954 9.25 19.5179 9.25 19.75V25.875H26.75V19.75C26.75 19.5179 26.8422 19.2954 27.0063 19.1313C27.1704 18.9672 27.3929 18.875 27.625 18.875C27.8571 18.875 28.0796 18.9672 28.2437 19.1313C28.4078 19.2954 28.5 19.5179 28.5 19.75ZM17.3809 20.3691C17.4622 20.4504 17.5587 20.515 17.6649 20.559C17.7712 20.603 17.885 20.6257 18 20.6257C18.115 20.6257 18.2288 20.603 18.3351 20.559C18.4413 20.515 18.5378 20.4504 18.6191 20.3691L22.9941 15.9941C23.1166 15.8717 23.2 15.7157 23.2338 15.5459C23.2677 15.3761 23.2503 15.2 23.184 15.0401C23.1178 14.8801 23.0055 14.7434 22.8615 14.6472C22.7175 14.5511 22.5482 14.4999 22.375 14.5H18.875V7.5C18.875 7.26794 18.7828 7.04538 18.6187 6.88128C18.4546 6.71719 18.2321 6.625 18 6.625C17.7679 6.625 17.5454 6.71719 17.3813 6.88128C17.2172 7.04538 17.125 7.26794 17.125 7.5V14.5H13.625C13.4518 14.4999 13.2825 14.5511 13.1385 14.6472C12.9945 14.7434 12.8822 14.8801 12.816 15.0401C12.7497 15.2 12.7323 15.3761 12.7662 15.5459C12.8 15.7157 12.8834 15.8717 13.0059 15.9941L17.3809 20.3691Z" fill="#F7F7F7"/>
</svg>
